<svg width="24" height="24" viewBox="0 0 24 24" fill="none" xmlns="http://www.w3.org/2000/svg">
<rect x="3.74609" y="8.32812" width="14" height="14" rx="1.5" stroke="#333333"/>
<path d="M22.811 8.52446L10.7735 20.562C10.4922 20.8431 10.1109 21.001 9.71321 21.001C9.31556 21.001 8.93418 20.8431 8.6529 20.562L1.93852 13.812C1.65772 13.5307 1.5 13.1495 1.5 12.7521C1.5 12.3547 1.65772 11.9735 1.93852 11.6923L3.81352 9.81728C4.09465 9.53733 4.47522 9.38015 4.87196 9.38015C5.2687 9.38015 5.64928 9.53733 5.9304 9.81728L9.75071 13.5223L18.822 4.56259C19.1031 4.28236 19.4839 4.125 19.8809 4.125C20.2778 4.125 20.6586 4.28236 20.9398 4.56259L22.8101 6.39446C22.9507 6.53385 23.0624 6.6997 23.1386 6.88245C23.2149 7.06521 23.2542 7.26125 23.2543 7.45927C23.2543 7.65729 23.2152 7.85336 23.1391 8.03618C23.0631 8.21901 22.9516 8.38496 22.811 8.52446Z" fill="#ED3082"/>
</svg>
